<?xml version="1.0" encoding="utf-8"?>
<!-- Generator: Adobe Illustrator 21.1.0, SVG Export Plug-In . SVG Version: 6.00 Build 0)  -->
<svg version="1.1" id="Layer_1" xmlns="http://www.w3.org/2000/svg" xmlns:xlink="http://www.w3.org/1999/xlink" x="0px" y="0px"
	 viewBox="0 0 112.2 112.2" style="enable-background:new 0 0 112.2 112.2;" xml:space="preserve">
<style type="text/css">
	.st0{fill:#689EC1;}
	.st1{fill:#6DB56D;}
	.st2{fill:#EB822F;}
</style>
<title>Asset 8GraphicFNL</title>
<g id="Layer_2">
	<g id="Layer_1-2">
		<g>
			<path class="st0" d="M27.7,66.9c-0.1,0-0.3,0-0.4-0.1L0.4,50.5C0.1,50.3,0,50.1,0,49.8V19.4c0-0.3,0.1-0.5,0.4-0.7
				c0.2-0.1,0.5-0.1,0.8,0l26.6,15.6c0.2,0.1,0.4,0.4,0.4,0.6l0.3,31.1c0,0.3-0.1,0.5-0.4,0.7C27.9,66.9,27.8,66.9,27.7,66.9z
				 M1.5,49.4l25.4,15.4l-0.3-29.3L1.5,20.8V49.4z"/>
		</g>
		<g>
			<path class="st0" d="M27.7,66.2c-0.3,0-0.5-0.1-0.6-0.4c-0.2-0.4-0.1-0.8,0.3-1L42.4,56c0,0,0,0,0,0l7.8-4.5
				c0.4-0.2,0.8-0.1,1,0.3s0.1,0.8-0.3,1l0,0L28.1,66C28,66.1,27.8,66.2,27.7,66.2z"/>
		</g>
		<g>
			<path class="st0" d="M54.5,112.2c-0.1,0-0.3,0-0.4-0.1L27.7,96.4c-0.2-0.1-0.4-0.4-0.4-0.6l-0.4-29.6c0-0.3,0.1-0.5,0.4-0.7
				c0.2-0.1,0.5-0.1,0.8,0l26.6,14.9c0.2,0.1,0.4,0.4,0.4,0.7l0.2,30.3c0,0.3-0.1,0.5-0.4,0.7C54.7,112.1,54.6,112.2,54.5,112.2z
				 M28.8,95.3l24.9,14.8l-0.2-28.6L28.5,67.5L28.8,95.3z"/>
		</g>
		<g>
			<path class="st1" d="M59.2,112.1c-0.1,0-0.2,0-0.4-0.1c-0.2-0.1-0.4-0.4-0.4-0.6l-0.4-30.3c0-0.3,0.1-0.5,0.4-0.7L85,65.1
				c0.2-0.1,0.5-0.1,0.8,0c0.2,0.1,0.4,0.4,0.4,0.7l-0.7,30.1c0,0.3-0.1,0.5-0.4,0.6L59.6,112C59.5,112.1,59.4,112.1,59.2,112.1z
				 M59.6,81.5L60,110l24-14.6l0.6-28.4L59.6,81.5z"/>
		</g>
		<g>
			<path class="st1" d="M85.1,65.8c-0.1,0-0.3,0-0.4-0.1L69.6,57c0,0-0.1,0-0.1,0l-7.8-4.5c-0.4-0.2-0.5-0.7-0.3-1
				c0.2-0.4,0.7-0.5,1-0.3l23,13.2c0.4,0.2,0.5,0.7,0.3,1C85.6,65.7,85.3,65.8,85.1,65.8z"/>
		</g>
		<g>
			<path class="st1" d="M85.6,66c-0.1,0-0.3,0-0.4-0.1c-0.2-0.1-0.4-0.4-0.4-0.6l-0.4-30.5c0-0.3,0.1-0.5,0.4-0.7l26.2-15.3
				c0.2-0.1,0.5-0.1,0.8,0c0.2,0.1,0.4,0.4,0.4,0.7v30.5c0,0.3-0.1,0.5-0.4,0.6L86,65.9C85.9,66,85.8,66,85.6,66z M86,35.2l0.3,28.8
				l24.3-14.5V20.7L86,35.2z"/>
		</g>
		<g>
			<path class="st2" d="M83.6,31.2c-0.1,0-0.3,0-0.4-0.1l-26.4-15c-0.2-0.1-0.4-0.4-0.4-0.7c0-0.3,0.2-0.5,0.4-0.7L83.6,0.3
				c0.2-0.1,0.5-0.1,0.7,0l25.8,14c0.2,0.1,0.4,0.4,0.4,0.6c0,0.3-0.1,0.5-0.4,0.7L84,31.1C83.8,31.2,83.7,31.2,83.6,31.2z
				 M58.8,15.5l24.8,14.1l24.7-14.7L84,1.8L58.8,15.5z"/>
		</g>
		<g>
			<path class="st2" d="M56.7,43c-0.4,0-0.7-0.3-0.8-0.7l0-9c0,0,0,0,0-0.1l-0.1-17.4c0-0.4,0.3-0.8,0.7-0.8c0,0,0,0,0,0
				c0.4,0,0.7,0.3,0.8,0.7l0.1,26.5C57.4,42.7,57.1,43,56.7,43C56.7,43,56.7,43,56.7,43z"/>
		</g>
		<g>
			<path class="st2" d="M30.2,31.5c-0.1,0-0.3,0-0.4-0.1l-26.4-15c-0.2-0.1-0.4-0.4-0.4-0.7c0-0.3,0.1-0.5,0.4-0.7l26.8-15
				C30.5,0,30.8,0,31,0.1l25.8,14.7c0.2,0.1,0.4,0.4,0.4,0.6c0,0.3-0.1,0.5-0.4,0.7L30.6,31.4C30.5,31.5,30.4,31.5,30.2,31.5z
				 M5.4,15.8l24.8,14.2L55,15.5L30.6,1.6L5.4,15.8z"/>
		</g>
	</g>
</g>
</svg>
